<?xml version="1.0" standalone="no"?>
<!DOCTYPE svg PUBLIC "-//W3C//DTD SVG 20010904//EN"
 "http://www.w3.org/TR/2001/REC-SVG-20010904/DTD/svg10.dtd">
<svg version="1.0" xmlns="http://www.w3.org/2000/svg"
 width="512.000000pt" height="512.000000pt" viewBox="0 0 512.000000 512.000000"
 preserveAspectRatio="xMidYMid meet">

<g transform="translate(0.000000,512.000000) scale(0.100000,-0.100000)"
fill="#ffffff" stroke="none">
<path d="M3488 4875 c-101 -38 -168 -110 -213 -231 -14 -37 -27 -70 -29 -72
-2 -2 -27 8 -55 22 -157 80 -306 64 -426 -45 -131 -121 -148 -271 -46 -423 22
-33 38 -63 35 -67 -9 -15 -114 -32 -199 -32 -107 0 -167 16 -320 83 -379 167
-734 192 -1117 79 -125 -37 -334 -137 -443 -212 -577 -400 -812 -1112 -594
-1797 33 -104 143 -317 216 -419 243 -339 629 -575 1037 -636 132 -19 162 -19
211 4 56 26 91 67 119 139 34 87 76 135 148 171 61 31 62 31 224 31 l162 0 11
-63 c6 -35 11 -79 11 -98 -1 -69 -31 -175 -75 -261 -75 -146 -91 -243 -60
-363 23 -91 72 -125 123 -89 36 25 43 55 26 110 -26 82 -14 160 39 262 65 126
90 216 91 332 1 52 -3 112 -7 134 l-8 39 83 -5 c92 -5 121 -17 243 -99 158
-105 350 -186 552 -231 85 -19 128 -22 318 -22 190 0 233 3 318 22 175 39 336
101 485 187 l62 36 0 -78 c0 -103 19 -175 83 -307 49 -102 52 -114 52 -185 -1
-92 -31 -159 -96 -215 -118 -101 -271 -100 -401 4 -41 32 -57 40 -77 35 -36
-9 -47 -20 -71 -69 -49 -102 -150 -166 -261 -166 -78 0 -117 12 -185 57 -28
18 -60 33 -70 33 -11 0 -42 -15 -69 -33 -67 -45 -106 -57 -184 -57 -113 0
-211 62 -260 163 -25 52 -36 63 -72 72 -20 5 -36 -2 -79 -36 -95 -75 -190 -96
-294 -65 -72 22 -119 -4 -119 -65 0 -42 28 -65 98 -84 106 -27 216 -16 313 34
l42 22 53 -54 c101 -102 203 -142 351 -135 75 3 102 9 156 34 l65 30 65 -30
c54 -25 81 -31 156 -34 149 -7 252 33 350 135 l52 53 65 -31 c165 -77 370 -37
499 99 63 66 91 116 113 199 30 117 15 214 -59 360 -52 104 -69 171 -68 270 1
117 19 156 133 283 250 282 381 568 418 912 59 543 -179 1097 -612 1425 l-64
48 51 110 c50 109 51 111 51 210 0 90 -3 105 -28 153 -76 145 -237 219 -382
177 -33 -9 -81 -28 -108 -42 -27 -13 -53 -21 -57 -16 -4 4 -13 26 -20 48 -36
112 -99 193 -186 236 -60 30 -205 38 -266 14z m201 -149 c53 -28 86 -79 126
-195 39 -114 58 -141 101 -141 11 0 68 22 125 49 57 27 118 52 136 55 45 10
107 -10 150 -47 77 -67 83 -145 22 -283 -23 -52 -45 -94 -50 -94 -6 0 -33 12
-61 26 -182 92 -423 152 -632 156 -82 1 -91 0 -108 -21 -21 -27 -24 -70 -5
-95 16 -21 74 -35 148 -36 148 0 412 -73 567 -155 143 -76 223 -136 343 -255
209 -208 326 -424 391 -718 32 -142 31 -433 -1 -582 -60 -281 -184 -506 -390
-711 -282 -279 -623 -422 -1011 -422 -299 0 -535 74 -810 255 l-107 71 23 41
c37 65 28 117 -23 137 -42 16 -81 -6 -105 -58 -26 -56 -63 -75 -156 -81 -70
-4 -74 -3 -104 24 -42 40 -147 176 -196 255 -96 153 -179 362 -224 564 -19 86
-22 131 -23 315 0 184 3 231 22 326 57 281 181 539 362 757 44 52 60 66 76 62
156 -43 175 -47 285 -47 134 0 226 21 347 77 108 50 214 89 303 110 52 12 82
25 98 42 36 39 28 84 -19 109 -27 13 -37 13 -112 -5 -68 -16 -181 -53 -258
-85 -12 -6 -28 10 -63 65 -55 86 -63 122 -41 175 33 78 105 127 190 127 39 -1
74 -12 159 -52 112 -53 134 -58 166 -41 17 9 56 99 90 203 14 45 52 93 95 118
37 23 133 25 174 5z m-1949 -632 c111 -9 370 -79 370 -100 0 -2 -22 -31 -49
-63 -143 -173 -270 -418 -335 -648 -53 -185 -61 -252 -60 -498 0 -211 2 -241
27 -356 58 -275 175 -535 332 -739 25 -32 45 -61 45 -63 0 -3 -55 -7 -122 -9
-115 -3 -127 -6 -193 -37 -87 -43 -170 -124 -208 -206 -60 -130 -50 -125 -201
-100 -296 49 -555 183 -771 400 -209 208 -335 439 -397 728 -32 148 -31 417 1
567 57 265 175 489 360 682 197 206 426 340 699 409 116 30 292 49 382 43 25
-2 79 -6 120 -10z"/>
<path d="M2913 3188 c-60 -29 -58 -229 2 -252 31 -12 65 -6 85 14 17 17 20 33
20 114 0 90 -1 96 -26 115 -29 23 -48 25 -81 9z"/>
<path d="M1385 2825 c-64 -63 7 -157 86 -114 48 25 44 105 -7 128 -37 16 -52
14 -79 -14z"/>
</g>
</svg>
